<svg preserveAspectRatio="none" width="100%" height="100%" overflow="visible" style="display: block;" viewBox="0 0 40 40" fill="none" xmlns="http://www.w3.org/2000/svg">
<g id="add">
<path id="Vector" d="M18.3333 21.6667H10C9.52778 21.6667 9.13194 21.5069 8.8125 21.1875C8.49306 20.8681 8.33333 20.4722 8.33333 20C8.33333 19.5278 8.49306 19.1319 8.8125 18.8125C9.13194 18.4931 9.52778 18.3333 10 18.3333H18.3333V10C18.3333 9.52778 18.4931 9.13194 18.8125 8.8125C19.1319 8.49306 19.5278 8.33333 20 8.33333C20.4722 8.33333 20.8681 8.49306 21.1875 8.8125C21.5069 9.13194 21.6667 9.52778 21.6667 10V18.3333H30C30.4722 18.3333 30.8681 18.4931 31.1875 18.8125C31.5069 19.1319 31.6667 19.5278 31.6667 20C31.6667 20.4722 31.5069 20.8681 31.1875 21.1875C30.8681 21.5069 30.4722 21.6667 30 21.6667H21.6667V30C21.6667 30.4722 21.5069 30.8681 21.1875 31.1875C20.8681 31.5069 20.4722 31.6667 20 31.6667C19.5278 31.6667 19.1319 31.5069 18.8125 31.1875C18.4931 30.8681 18.3333 30.4722 18.3333 30V21.6667Z" fill="var(--fill-0, #1F1F1F)"/>
</g>
</svg>
